<svg xmlns="http://www.w3.org/2000/svg" version="1.1" xmlns:xlink="http://www.w3.org/1999/xlink" xmlns:svgjs="http://svgjs.dev/svgjs" width="1000" height="1000" viewBox="0 0 1000 1000"><rect width="1000" height="1000" fill="#000000"></rect><g transform="matrix(0.7,0,0,0.7,149.57575757575756,436.89819610058544)"><svg viewBox="0 0 396 72" data-background-color="#ffffff" preserveAspectRatio="xMidYMid meet" height="181" width="1000" xmlns="http://www.w3.org/2000/svg" xmlns:xlink="http://www.w3.org/1999/xlink"><g id="tight-bounds" transform="matrix(1,0,0,1,0.2400000000000091,-0.14104277223481176)"><svg viewBox="0 0 395.52 72.28208554446961" height="72.28208554446961" width="395.52"><g><svg viewBox="0 0 503.1869681931481 91.95844326405603" height="72.28208554446961" width="395.52"><g transform="matrix(1,0,0,1,0,12.709162563990382)"><svg viewBox="0 0 395.52 66.54011813607526" height="66.54011813607526" width="395.52"><g id="textblocktransform"><svg viewBox="0 0 395.52 66.54011813607526" height="66.54011813607526" width="395.52" id="textblock"><g><svg viewBox="0 0 395.52 66.54011813607526" height="66.54011813607526" width="395.52"><g transform="matrix(1,0,0,1,0,0)"><svg width="395.52" viewBox="1.5 -28.8 228.53 38.45" height="66.54011813607526" data-palette-color="#5d4073"><path d="M14.75-13.2L14.75-17.2 22.3-17.2 22.3-13.2 14.75-13.2ZM12.55-28.8L12.55 0 6.3 0 6.3-13.2 1.5-13.2 1.5-17.2 6.3-17.2 6.3-25.35 12.55-28.8ZM28.55-21.85L22.3-21.85 22.3-24.15 14.75-24.15 14.75-28.8 22.9-28.8 28.55-25.35 28.55-21.85ZM30.05-3.5L30.05-18.55 35.9-22 43.8-22 43.8-17.3 36.3-17.3 36.3-5.4 43.8-5.4 43.8-0.05 35.9-0.05 30.05-3.5ZM59.4-3.5L59.4-18.55 53.55-22 45.6-22 45.6-17.3 53.15-17.3 53.15-5.4 45.6-5.4 45.6-0.05 53.55-0.05 59.4-3.5ZM76.9-17.2L76.9-21.85 84.4-21.85 84.4-17.2 76.9-17.2ZM84.4-7.5L90.7-7.5 90.7-3.45 85 0 76.9 0 76.9-5.25 84.4-5.25 84.4-7.5ZM63.9-19.35L74.65-25.3 74.65-5.25 74.65 0 68.4-3.45 68.4-17.2 63.9-17.15 63.9-19.35ZM95.59-3.5L95.59-18.55 101.44-22 109.34-22 109.34-17.3 101.84-17.3 101.84-5.4 109.34-5.4 109.34-0.05 101.44-0.05 95.59-3.5ZM124.94-3.5L124.94-18.55 119.09-22 111.14-22 111.14-17.3 118.69-17.3 118.69-5.4 111.14-5.4 111.14-0.05 119.09-0.05 124.94-3.5ZM163.79-18.55L163.79-6.4 158.19-3 150.29-3 150.29-7 157.54-7 157.54-17.3 149.99-17.3 149.99-22 158.19-22 163.79-18.55ZM133.94 9.65L133.94-22 147.79-22 147.79-17.3 140.29-17.3 140.29-7 147.54-7 147.54-3 140.29-3 140.29 9.65 133.94 9.65ZM172.79 0.05L172.79-28.75 179.19-28.75 179.19 0.05 172.79 0.05ZM188.19-22L194.49-22 194.49 0.05 188.19 0.05 188.19-22ZM194.39-28.7L194.39-24.05 188.19-24.05 188.19-28.7 194.39-28.7ZM216.28-6.9L216.28-15.7 223.03-22.05 230.03-20.3 219.18-11.65 230.03-1.85 223.03 0 216.28-6.9ZM213.88-6.9L213.88-15.7 206.83-22.05 199.98-20.3 210.83-11.65 199.98-1.85 206.83 0 213.88-6.9Z" opacity="1" transform="matrix(1,0,0,1,0,0)" fill="#ffffff" class="undefined-text-0" data-fill-palette-color="primary" id="text-0"></path></svg></g></svg></g></svg></g></svg></g><g transform="matrix(1,0,0,1,411.2285249290921,0)"><svg viewBox="0 0 91.95844326405603 91.95844326405603" height="91.95844326405603" width="91.95844326405603"><g data-palette-color="#35185a"><rect width="25.135307825508647" height="91.95844326405603" fill="#ffffff" stroke="transparent" data-fill-palette-color="accent" x="0" fill-opacity="1"></rect><rect width="25.135307825508647" height="91.95844326405603" fill="#ffffff" stroke="transparent" data-fill-palette-color="accent" x="30.65281442135201" fill-opacity="0.75"></rect><rect width="25.135307825508647" height="91.95844326405603" fill="#ffffff" stroke="transparent" data-fill-palette-color="accent" x="61.30562884270402" fill-opacity="0.5"></rect></g></svg></g></svg></g><defs></defs></svg><rect width="395.52" height="72.28208554446961" fill="none" stroke="none" visibility="hidden"></rect></g></svg></g></svg>